<svg xmlns="http://www.w3.org/2000/svg" width="51" height="50" fill="none"><circle cx="25.5" cy="25" r="25" fill="#07F"/><path stroke="#fff" stroke-linecap="round" stroke-linejoin="round" stroke-width="2" d="M26 10.75c-6.213 0-11.25 3.615-11.25 9 0 4.078 4.39 12.084 6.99 15h8.52c2.6-2.916 6.99-10.922 6.99-15 0-5.385-5.037-9-11.25-9"/><path stroke="#fff" stroke-linecap="round" stroke-linejoin="round" stroke-width="2" d="M26 10.75c-3.728 0-6.75 3.615-6.75 9 0 4.078 2.634 12.084 4.195 15M26 10.75c3.728 0 6.75 3.615 6.75 9 0 4.078-2.634 12.084-4.195 15"/><path stroke="#fff" stroke-linecap="round" stroke-linejoin="round" stroke-width="2" d="M26 10.75c-1.243 0-2.25 3.615-2.25 9 0 4.078.878 12.084 1.398 15M26 10.75c1.243 0 2.25 3.615 2.25 9 0 4.078-.878 12.084-1.398 15"/><path stroke="#fff" stroke-linecap="round" stroke-linejoin="round" stroke-width="2" d="M30.5 34.478v4.772h-9v-4.773"/></svg>